<?xml version="1.0" standalone="no"?>
<svg version="1.0" fill="#35f210" xmlns="http://www.w3.org/2000/svg"
  viewBox="0 0 400.000000 400.000000"
 preserveAspectRatio="xMidYMid meet">
<g transform="translate(0.000000,400.000000) scale(0.100000,-0.100000)"
 stroke="none">
<path d="M1381 3266 c-27 -15 -71 -82 -71 -108 0 -24 56 -64 110 -78 53 -14
107 -56 385 -299 110 -97 251 -220 313 -274 62 -55 111 -102 108 -105 -3 -3
-1 -11 5 -18 15 -19 3 -33 -24 -27 -20 4 -19 2 8 -22 17 -14 44 -36 60 -47 29
-21 29 -20 -4 15 -32 34 -33 37 -14 37 12 0 25 -5 28 -10 4 -6 11 -7 17 -4 7
4 8 2 4 -4 -7 -11 32 -38 47 -34 5 1 6 -2 3 -6 -7 -12 28 -44 39 -35 4 5 5 2
1 -4 -4 -7 -2 -14 3 -14 21 -3 26 -4 39 -12 7 -5 10 -12 7 -17 -3 -5 8 -19 25
-31 30 -23 40 -49 19 -49 -6 0 -47 32 -90 71 -44 39 -79 67 -79 62 0 -6 36
-40 80 -77 70 -59 79 -71 74 -93 -10 -36 48 -95 87 -88 24 4 42 -7 116 -71 48
-42 110 -98 137 -125 26 -27 52 -49 57 -49 16 0 10 -29 -19 -90 l-29 -60 24
-15 c12 -9 23 -25 23 -36 0 -11 10 -29 23 -39 22 -18 22 -18 2 -38 -16 -15
-27 -17 -55 -11 -19 5 -202 9 -406 9 l-372 0 -3 124 c-2 68 -6 126 -9 128 -3
2 -166 2 -362 0 l-357 -4 -3 -84 -3 -84 -37 35 c-20 19 -43 35 -51 35 -17 0
-30 27 -21 41 3 6 15 7 26 3 18 -5 20 -3 15 17 -4 13 -7 37 -7 52 0 17 -7 30
-17 34 -10 3 -25 12 -33 18 -8 7 -28 16 -45 20 -16 4 -24 10 -17 12 6 3 12 12
12 20 0 9 -6 13 -13 10 -10 -4 -13 2 -10 21 3 16 1 22 -4 16 -10 -13 -46 -27
-39 -15 3 5 -1 11 -9 15 -8 3 -15 13 -15 23 0 13 -3 14 -8 5 -6 -8 -39 -13
-104 -13 -76 -1 -104 3 -143 20 -43 19 -66 21 -241 21 -118 0 -195 -4 -199
-10 -4 -6 45 -10 140 -10 l146 0 -3 -32 -3 -33 -152 -3 c-100 -2 -153 1 -153
8 0 5 -5 10 -11 10 -5 0 -7 -4 -4 -10 3 -5 1 -10 -4 -10 -6 0 -11 -15 -11 -34
0 -19 -6 -41 -14 -49 -13 -12 -13 -18 1 -43 10 -21 13 -44 9 -79 -4 -27 -7
-56 -8 -62 -2 -21 -18 -15 -18 6 0 11 -8 28 -18 37 -16 17 -16 18 1 11 15 -6
17 1 17 54 0 52 -2 60 -18 57 -14 -3 -17 -16 -20 -86 -2 -72 -1 -82 15 -82 16
0 16 -1 0 -12 -13 -10 -16 -27 -14 -73 2 -54 4 -60 27 -66 20 -6 16 -7 -18 -8
-30 -1 -42 -5 -39 -13 2 -7 17 -12 33 -11 16 1 21 -1 11 -3 -9 -3 -15 -10 -11
-15 3 -5 10 -7 15 -4 5 4 9 0 9 -8 0 -8 21 -32 47 -53 26 -22 56 -47 65 -57
10 -9 18 -13 18 -7 0 15 27 12 44 -6 9 -9 16 -11 16 -4 0 7 14 10 38 8 l37 -3
3 -58 c1 -32 7 -67 12 -77 14 -27 15 -27 -40 -40 -82 -20 -56 -40 53 -40 40 0
56 -3 51 -11 -6 -11 271 -7 426 6 48 4 61 3 50 -5 -11 -8 37 -9 175 -6 105 3
343 4 530 3 346 -2 606 -2 705 0 30 1 123 1 205 0 156 -1 250 4 261 16 14 14
188 7 218 -8 20 -11 61 -15 142 -15 107 0 114 1 114 20 0 11 5 20 10 20 6 0
10 11 10 25 0 23 -4 25 -42 25 -40 0 -41 -1 -24 -19 16 -18 16 -19 -26 -23
-32 -4 -47 0 -60 13 -16 16 -15 18 17 41 19 12 35 27 35 32 0 5 -7 3 -15 -4
-12 -10 -19 -10 -27 -2 -18 18 -56 15 -60 -4 -3 -14 -6 -13 -22 5 -19 21 -19
21 6 21 25 0 43 21 31 34 -11 11 -51 6 -55 -6 -2 -6 -10 -8 -16 -4 -19 12 -14
26 9 26 15 0 19 4 15 16 -3 9 -6 18 -6 20 0 2 -12 4 -26 4 -22 0 -25 -4 -21
-21 6 -21 6 -21 -15 1 -17 18 -18 24 -7 30 7 5 17 6 21 4 4 -3 5 1 2 9 -8 23
15 31 35 13 20 -18 31 -12 31 16 0 13 8 18 29 18 16 0 31 -5 33 -10 2 -6 42
-13 89 -17 68 -4 91 -2 116 11 19 9 56 16 89 16 l56 0 -16 -25 c-24 -36 -20
-42 26 -43 44 -2 58 8 58 46 0 15 6 22 19 22 14 0 26 18 46 65 l28 65 -38 85
c-37 83 -45 93 -198 240 -87 85 -164 159 -171 164 -9 8 -51 5 -144 -9 -72 -11
-137 -23 -145 -25 -24 -10 -41 24 -52 103 -7 57 -14 77 -25 77 -16 0 -20 -40
-8 -87 3 -16 3 -28 -2 -28 -4 0 -66 57 -136 126 -128 126 -129 126 -159 114
-43 -17 -87 -26 -110 -22 -11 1 -78 55 -149 118 -72 63 -141 117 -155 121 -15
3 -80 54 -146 112 -613 541 -660 586 -677 643 -10 34 -67 99 -86 98 -4 -1 -18
-7 -31 -14z m1315 -1154 c-17 -16 -18 -16 -5 5 7 12 15 20 18 17 3 -2 -3 -12
-13 -22z m-1949 -229 c-2 -13 0 -23 4 -23 5 0 9 -16 9 -35 l0 -35 -61 0 c-54
0 -60 2 -49 16 8 8 13 37 12 64 -1 48 0 49 31 52 41 4 60 -10 54 -39z m2623
32 c-11 -13 -10 -14 3 -9 22 8 45 -35 26 -48 -11 -8 -10 -9 2 -5 16 5 39 -28
39 -56 0 -25 -25 -67 -37 -62 -7 2 -13 0 -13 -4 0 -5 5 -11 11 -13 17 -6 -2
-39 -29 -49 -25 -10 -92 -2 -92 10 0 4 -23 17 -50 29 -28 12 -49 27 -48 34 2
7 -7 14 -20 16 -29 4 -51 47 -34 64 7 7 12 20 12 30 0 13 8 18 29 18 17 0 33
5 36 10 4 6 22 8 43 5 25 -4 32 -3 24 3 -11 7 -8 11 12 14 14 3 26 1 26 -3 0
-5 -5 -9 -11 -9 -5 0 -7 -5 -4 -10 4 -6 3 -10 -2 -9 -31 5 -41 -38 -14 -63 10
-10 12 -10 7 0 -9 14 20 17 29 2 3 -5 12 -10 18 -9 9 0 8 2 -1 6 -6 2 -9 10
-5 16 4 6 8 25 9 42 1 16 3 31 3 33 1 1 1 5 0 9 0 4 8 10 18 14 26 11 27 11
13 -6z m-2745 -106 c12 -19 -40 -29 -142 -28 -59 1 -100 3 -90 6 9 2 17 8 17
13 0 5 -8 10 -17 13 -10 2 37 4 105 4 67 0 125 -3 127 -8z m288 -6 c-7 -2 -19
-2 -25 0 -7 3 -2 5 12 5 14 0 19 -2 13 -5z m107 -2 c0 -6 15 -12 33 -14 17 -2
-3 -5 -46 -5 -68 -2 -76 0 -65 13 14 16 78 21 78 6z m-87 -88 c-7 -2 -19 -2
-25 0 -7 3 -2 5 12 5 14 0 19 -2 13 -5z m44 1 c-3 -3 -12 -4 -19 -1 -8 3 -5 6
6 6 11 1 17 -2 13 -5z m360 -280 c-3 -3 -12 -4 -19 -1 -8 3 -5 6 6 6 11 1 17
-2 13 -5z m2345 -136 c-7 -7 -12 -8 -12 -2 0 14 12 26 19 19 2 -3 -1 -11 -7
-17z m-605 -95 l52 -103 -99 0 c-60 0 -100 -4 -100 -10 0 -5 -18 -10 -40 -10
l-41 0 15 28 c7 15 17 42 21 60 5 22 12 32 26 32 16 0 19 7 19 56 l0 55 48 -3
47 -3 52 -102z m-387 53 c0 -2 -7 -7 -16 -10 -8 -3 -12 -2 -9 4 6 10 25 14 25
6z m-1973 -12 c-3 -3 -12 -4 -19 -1 -8 3 -5 6 6 6 11 1 17 -2 13 -5z m496 -1
c-7 -2 -19 -2 -25 0 -7 3 -2 5 12 5 14 0 19 -2 13 -5z m843 -49 c28 -4 33 -10
42 -46 6 -23 10 -43 9 -44 -7 -6 -658 -10 -666 -4 -8 5 -7 15 4 36 8 16 15 35
15 42 0 10 52 12 254 10 140 -1 258 1 261 4 8 8 36 8 81 2z m447 -91 l20 -23
-42 0 c-37 0 -42 2 -36 18 4 9 10 28 13 41 4 22 5 22 15 5 5 -11 19 -29 30
-41z m-1480 9 c-22 -5 -27 6 -12 24 12 15 14 14 20 -3 4 -12 1 -19 -8 -21z
m2267 -7 c-7 -9 -15 -13 -19 -10 -3 3 1 10 9 15 21 14 24 12 10 -5z m-2553
-21 c-3 -3 -12 -4 -19 -1 -8 3 -5 6 6 6 11 1 17 -2 13 -5z m2683 -60 c0 -2 -7
-4 -15 -4 -8 0 -15 4 -15 10 0 5 7 7 15 4 8 -4 15 -8 15 -10z"/>
<path d="M3250 1235 c13 -14 26 -25 28 -25 3 0 -5 11 -18 25 -13 14 -26 25
-28 25 -3 0 5 -11 18 -25z"/>
<path d="M425 1200 l-30 -8 27 -1 c15 0 30 4 33 9 3 6 5 9 3 9 -2 -1 -16 -5
-33 -9z"/>
</g>
</svg>
