<?xml version="1.0" standalone="no"?>
<!DOCTYPE svg PUBLIC "-//W3C//DTD SVG 20010904//EN"
 "http://www.w3.org/TR/2001/REC-SVG-20010904/DTD/svg10.dtd">
<svg version="1.0" xmlns="http://www.w3.org/2000/svg"
 width="215.000000pt" height="150.000000pt" viewBox="0 0 215.000000 150.000000"
 preserveAspectRatio="xMidYMid meet">

<g transform="translate(0.000000,150.000000) scale(0.100000,-0.100000)"
fill="#000000" stroke="none">
<path d="M702 1437 c-38 -40 -28 -64 37 -86 38 -12 77 -43 241 -186 63 -55
139 -121 168 -145 63 -52 80 -79 61 -91 -14 -9 -7 -12 21 -10 8 0 44 -25 79
-57 58 -52 63 -60 52 -79 -9 -19 -8 -25 11 -43 12 -11 30 -20 40 -20 24 0 178
-137 178 -158 0 -10 -7 -28 -16 -40 -15 -21 -15 -25 0 -41 9 -10 16 -22 16
-28 0 -6 6 -13 13 -16 42 -16 -37 -22 -250 -19 l-243 3 0 70 0 69 -210 0 -210
0 0 -51 0 -51 -34 29 c-38 31 -44 43 -21 43 20 0 19 34 -1 54 -8 9 -26 19 -40
22 -13 3 -21 10 -18 15 10 17 -56 46 -109 48 -66 1 -107 10 -107 22 0 6 -4 8
-8 5 -4 -2 -14 -1 -22 4 -21 13 3 58 35 66 41 10 28 24 -22 24 -57 0 -95 -9
-88 -20 3 -5 1 -11 -4 -14 -5 -3 -7 -16 -3 -29 5 -19 3 -20 -10 -9 -14 11 -17
10 -23 -7 -5 -17 -15 -21 -48 -21 -25 0 -37 -4 -29 -8 7 -5 57 -6 112 -4 69 3
100 1 101 -7 1 -6 1 -20 1 -31 0 -35 -2 -37 -27 -37 -14 0 -25 5 -24 11 1 6 0
22 -1 36 -2 18 -4 20 -7 8 -4 -18 -18 -19 -170 -21 -18 0 -23 -6 -23 -24 0
-16 -7 -27 -20 -30 -17 -5 -20 -14 -21 -67 -1 -33 -1 -76 0 -94 2 -17 -2 -32
-8 -32 -6 0 -11 -5 -11 -12 0 -6 2 -9 5 -6 3 2 26 -15 51 -39 40 -37 53 -43
90 -43 43 0 44 0 44 -34 0 -19 3 -41 6 -50 4 -10 -2 -17 -20 -22 -47 -11 -27
-22 51 -27 60 -4 1044 -1 1418 4 33 1 99 -2 148 -6 62 -5 87 -4 87 4 0 7 33
11 103 11 74 1 97 3 84 11 -25 14 -232 25 -224 12 13 -21 -26 -24 -44 -4 -16
16 -16 20 -3 25 8 3 12 1 9 -4 -3 -6 1 -7 10 -3 22 8 1 22 -35 24 -14 0 -19 3
-12 6 20 8 14 26 -8 20 -11 -3 -20 -1 -20 4 0 5 5 9 11 9 5 0 7 5 4 10 -9 15
-38 12 -29 -2 5 -10 4 -10 -6 -1 -19 18 6 49 26 32 11 -9 14 -8 14 6 0 15 5
16 33 10 40 -10 87 -10 155 0 52 8 64 1 40 -23 -9 -9 -5 -12 20 -12 25 0 32 4
32 20 0 11 7 20 15 20 8 0 19 17 26 40 10 34 9 46 -6 82 -22 51 -210 238 -238
238 -10 0 -50 -5 -89 -11 -81 -13 -88 -8 -88 53 0 48 -18 59 -22 13 l-3 -36
-72 69 c-47 45 -78 67 -90 64 -74 -16 -75 -16 -158 57 -44 39 -84 71 -88 71
-10 0 -18 7 -247 210 -197 174 -230 206 -230 225 0 19 -35 55 -53 55 -8 0 -23
-10 -35 -23z m1201 -798 c17 -30 17 -33 0 -71 -16 -36 -20 -39 -48 -34 -16 4
-31 11 -33 16 -2 6 -12 10 -23 10 -10 0 -19 5 -19 10 0 6 -6 10 -14 10 -8 0
-17 4 -21 10 -9 14 5 57 18 57 7 0 26 2 42 5 17 3 25 3 19 1 -21 -7 -3 -43 22
-43 17 0 22 4 18 15 -7 17 1 45 13 45 4 0 16 -14 26 -31z m-1627 -30 c3 -5
-18 -9 -46 -9 -29 0 -49 4 -45 9 7 12 83 12 91 0z m231 -5 c-3 -3 -12 -4 -19
-1 -8 3 -5 6 6 6 11 1 17 -2 13 -5z m-417 -81 c0 -27 -4 -43 -8 -36 -8 12 -4
83 4 83 2 0 4 -21 4 -47z m1615 -253 c14 -27 25 -53 25 -58 0 -8 -140 -24
-148 -18 -5 6 21 66 29 66 5 0 9 14 9 30 0 27 3 30 30 30 26 0 33 -7 55 -50z
m-566 -41 l10 -29 -177 -2 c-179 -1 -213 0 -219 6 -2 2 2 15 8 29 l12 26 178
-1 178 -1 10 -28z m230 -21 c12 -16 11 -18 -13 -18 -24 0 -26 2 -16 21 7 11
13 19 14 17 1 -1 8 -11 15 -20z m-849 8 c0 -3 -4 -8 -10 -11 -5 -3 -10 -1 -10
4 0 6 5 11 10 11 6 0 10 -2 10 -4z"/>
<path d="M1330 816 c0 -2 8 -10 18 -17 15 -13 16 -12 3 4 -13 16 -21 21 -21
13z"/>
</g>
</svg>
