<?xml version="1.0" standalone="no"?>

<svg version="1.0" xmlns="http://www.w3.org/2000/svg"
 viewBox="0 0 98.000000 94.000000"
 fill="#35f210"
 preserveAspectRatio="xMidYMid meet">
<g transform="translate(0.000000,94.000000) scale(0.100000,-0.100000)"
 stroke="none">
<path d="M138 837 l-138 -102 0 -367 0 -368 408 0 407 0 83 83 82 82 0 388 0
387 -352 -1 -353 -1 -137 -101z m634 -27 l-63 -60 -184 0 -185 0 0 60 0 60
248 0 247 -1 -63 -59z m-502 -15 l0 -45 -62 0 -61 0 59 45 c32 24 60 45 62 45
1 0 2 -20 2 -45z m650 -265 l0 -300 -65 0 c-70 0 -75 5 -50 50 19 33 19 101 0
126 -11 14 -14 52 -15 159 l0 139 62 63 c34 35 64 63 65 63 2 0 3 -135 3 -300z
m-650 46 l0 -94 -41 -33 c-30 -24 -39 -37 -35 -52 5 -21 -9 -57 -23 -57 -5 0
-6 12 -4 28 4 21 2 24 -6 12 -14 -19 -4 -71 15 -86 8 -7 13 -18 12 -25 -2 -7
3 -14 10 -15 25 -3 27 -5 12 -14 -12 -8 -12 -11 3 -28 20 -22 22 -32 4 -32 -8
0 -38 -13 -68 -30 -30 -16 -57 -30 -61 -30 -5 0 -8 124 -8 275 l0 275 95 0 95
0 0 -94z m430 14 c0 -83 -4 -89 -41 -69 -53 28 -232 30 -302 3 -15 -5 -17 2
-17 70 l0 76 180 0 180 0 0 -80z m-340 -213 c0 -34 -57 -50 -80 -22 -14 17 -6
33 24 45 24 9 56 -4 56 -23z m39 -77 c25 -13 34 -39 20 -56 -15 -18 -59 -18
-59 0 0 8 -6 16 -14 19 -8 3 -20 15 -26 26 -10 19 -8 21 25 21 20 0 44 -4 54
-10z m-99 -7 c0 -5 -4 -14 -9 -22 -8 -12 -12 -12 -25 -2 -9 7 -13 17 -10 22 6
11 44 12 44 2z m-62 -15 c-6 -18 -25 -20 -31 -3 -5 10 0 15 14 15 12 0 19 -5
17 -12z m94 -15 c26 -23 22 -34 -9 -27 -35 9 -35 8 -27 28 8 20 13 20 36 -1z
m-62 -8 c11 -13 8 -15 -14 -15 -25 0 -33 10 -19 23 10 11 19 8 33 -8z m387
-116 c-19 -16 -20 -18 -4 -19 17 0 47 -22 47 -34 0 -3 -120 -6 -267 -6 l-268
0 55 32 c30 18 58 36 61 41 4 5 9 4 13 -2 5 -8 13 -8 26 -1 28 15 39 12 33
-10 -4 -16 -2 -19 11 -14 9 3 16 1 16 -5 0 -10 16 -10 139 5 29 4 45 11 48 22
3 14 14 16 58 14 l55 -4 -23 -19z m-407 11 c0 -5 -2 -10 -4 -10 -3 0 -8 5 -11
10 -3 6 -1 10 4 10 6 0 11 -4 11 -10z m600 7 c0 -2 -13 -16 -30 -32 l-30 -29
0 32 c0 29 3 32 30 32 17 0 30 -1 30 -3z"/>
<path d="M302 370 c0 -14 2 -19 5 -12 2 6 2 18 0 25 -3 6 -5 1 -5 -13z"/>
<path d="M367 294 c-4 -4 -7 -12 -7 -18 0 -6 4 -4 9 3 8 12 12 10 22 -12 11
-25 29 -28 29 -5 0 6 -3 9 -6 5 -4 -3 -14 3 -23 14 -9 11 -20 17 -24 13z"/>
</g>
</svg>
