<?xml version="1.0" encoding="utf-8"?>
<svg version="1.1" xmlns="http://www.w3.org/2000/svg" fill="#35f210" xmlns:xlink="http://www.w3.org/1999/xlink" x="0px" y="0px" viewBox="0 0 1000 1000" enable-background="new 0 0 1000 1000" xml:space="preserve">
<g><g><g><path d="M184.8,10c-15.4,0-30.1,6.5-40.5,18c-10.3,11.4-15.3,26.8-13.7,42.1l88.2,851.1l11.7,10.1c11.1,9.9,75.6,58.6,269.4,58.6c193.9,0,258.5-48.7,269.5-58.5l11.8-10.3L869.4,70c1.6-15.3-3.4-30.6-13.8-42.1c-10.3-11.4-25-17.9-40.5-17.9L184.8,10L184.8,10z M704.3,876.9c-23.5,11.2-83.5,32-204.2,32c-121.5,0-181.4-21.1-204.2-31.9l-75.3-726.6c-1.6-15.4,3.4-30.6,13.8-42.1c10.3-11.5,25-18,40.5-18h450.5c15.4,0,30.1,6.5,40.4,18c10.3,11.5,15.3,26.7,13.8,42.1L704.3,876.9z"/><path d="M323.3,344.1L367.6,815c0,0,46.7,25.4,124.5,25.4c77.9,0,148.3-25.4,148.3-25.4l42.2-448.6c-14.8,0.7-29.6,1.8-44.2,1.5C543.4,365.9,426.8,339.3,323.3,344.1z"/></g></g><g></g><g></g><g></g><g></g><g></g><g></g><g></g><g></g><g></g><g></g><g></g><g></g><g></g><g></g><g></g></g>
</svg>