<?xml version="1.0" standalone="no"?>
<!DOCTYPE svg PUBLIC "-//W3C//DTD SVG 20010904//EN"
 "http://www.w3.org/TR/2001/REC-SVG-20010904/DTD/svg10.dtd">
<svg version="1.0" xmlns="http://www.w3.org/2000/svg"
 width="215.000000pt" height="150.000000pt" viewBox="0 0 215.000000 150.000000"
 preserveAspectRatio="xMidYMid meet">

<g transform="translate(0.000000,150.000000) scale(0.100000,-0.100000)"
fill="#000000" stroke="none">
<path d="M200 1151 c-36 -11 -100 -53 -132 -87 -84 -89 -76 -251 15 -330 l42
-36 97 4 c59 2 103 9 110 16 20 20 35 14 53 -24 25 -52 160 -181 225 -214 95
-48 237 -88 330 -94 89 -5 210 7 247 26 12 6 29 8 38 4 9 -3 37 3 62 14 25 11
59 20 75 20 31 0 63 14 86 37 7 7 20 13 28 13 8 0 14 4 14 9 0 5 14 14 30 21
17 7 30 16 30 20 0 5 10 6 21 3 17 -5 37 10 95 73 41 43 74 82 74 86 0 5 0 10
0 13 0 3 9 14 19 24 11 11 25 45 32 76 12 54 12 58 -8 74 -12 9 -23 27 -25 41
-4 30 -30 39 -78 28 -19 -4 -141 -8 -270 -8 -203 0 -335 -7 -480 -27 -19 -2
-73 -6 -119 -9 -47 -2 -87 -6 -89 -9 -3 -3 -11 0 -19 6 -10 9 -13 8 -13 -5 0
-17 -12 -21 -24 -8 -10 9 -96 10 -96 0 0 -4 -27 -6 -60 -5 -64 1 -79 14 -65
57 4 13 2 20 -7 20 -7 0 -19 13 -26 29 -22 49 -71 111 -105 131 -33 21 -64 24
-107 11z m120 -56 c15 -15 39 -48 54 -75 l26 -48 -37 -12 c-21 -7 -43 -16 -48
-21 -6 -4 -29 -11 -51 -15 -44 -7 -43 -8 -88 114 -22 57 -21 61 17 78 43 19
94 11 127 -21z m-155 -105 c14 -41 33 -82 41 -91 13 -14 10 -18 -29 -33 -24
-9 -54 -28 -67 -41 -31 -33 -47 -31 -58 8 -20 64 -20 79 -6 128 15 51 71 126
84 112 5 -4 20 -42 35 -83z m245 -64 c0 -9 -7 -12 -18 -9 -12 3 -23 -4 -32
-21 -7 -14 -17 -26 -22 -26 -14 0 2 -43 23 -61 17 -15 17 -17 -13 -43 -17 -15
-36 -25 -42 -23 -6 2 -13 37 -16 80 -4 64 -2 77 10 77 8 1 31 9 50 20 42 23
60 25 60 6z m580 -6 c0 -5 -4 -10 -9 -10 -6 0 -13 5 -16 10 -3 6 1 10 9 10 9
0 16 -4 16 -10z m-731 -111 c1 -29 4 -56 8 -61 17 -30 -88 -38 -143 -12 -19 9
-34 19 -34 23 0 14 56 61 95 80 64 32 72 29 74 -30z"/>
<path d="M533 406 c-28 -13 -28 -18 -5 -38 36 -33 100 -58 196 -78 86 -17 136
-20 402 -20 299 0 306 0 376 25 66 23 87 37 88 58 0 4 -8 7 -18 7 -10 0 -23 5
-29 11 -10 10 -47 2 -158 -37 -68 -24 -227 -48 -300 -46 -157 4 -359 50 -489
113 -22 10 -40 18 -40 18 -1 -1 -11 -6 -23 -13z"/>
</g>
</svg>
