<?xml version="1.0" standalone="no"?>
<svg version="1.0" xmlns="http://www.w3.org/2000/svg" viewBox="0 0 300.000000 300.000000"
 preserveAspectRatio="xMidYMid meet">
<g transform="translate(0.000000,300.000000) scale(0.100000,-0.100000)"
fill="#000000" stroke="none">
<path d="M360 2684 c-173 -173 -325 -320 -337 -325 l-23 -9 0 -1175 0 -1175
1155 0 c1095 0 1155 1 1155 18 0 9 142 159 318 335 262 262 322 317 345 317
l27 0 0 1165 0 1165 -1163 0 -1162 0 -315 -316z m183 -196 l-148 -148 -160 0
-160 0 305 305 305 305 3 -157 3 -157 -148 -148z m2207 327 l-135 -135 -937 0
-938 0 0 135 0 135 1072 0 1073 0 -135 -135z m188 -127 c-7 -4 -69 -8 -138 -8
l-125 0 135 135 135 135 3 -127 c2 -94 -1 -128 -10 -135z m-1688 -203 l-145
-145 -182 0 -183 0 0 145 0 145 327 0 328 0 -145 -145z m1170 0 l-145 -145
-407 0 -408 0 0 145 0 145 552 0 553 0 -145 -145z m205 -165 l-310 -310 -3
152 -3 152 158 158 158 158 155 0 155 0 -310 -310z m-1215 140 l0 -120 -122 0
-123 0 120 120 c66 66 121 120 122 120 2 0 3 -54 3 -120z m1528 -1732 c-7 -4
-151 -8 -320 -8 l-308 0 0 612 0 613 318 318 317 317 3 -922 c2 -731 0 -923
-10 -930z m-2248 1727 l0 -115 -117 0 -118 0 115 115 c63 63 116 115 117 115
2 0 3 -52 3 -115z m-485 -305 c-77 -77 -143 -140 -147 -140 -5 0 -8 63 -8 140
l0 140 147 0 148 0 -140 -140z m485 -10 l0 -150 -292 0 -293 0 150 150 150
150 142 0 143 0 0 -150z m225 9 c-77 -77 -148 -145 -157 -150 -17 -9 -18 0
-18 141 l0 150 157 0 158 0 -140 -141z m495 -9 l0 -150 -297 0 -298 0 150 150
150 150 147 0 148 0 0 -150z m850 0 l0 -150 -400 0 -400 0 0 150 0 150 400 0
400 0 0 -150z m-1570 -823 l0 -622 -320 -320 -320 -320 0 943 0 942 320 0 320
0 0 -623z m70 13 c0 -400 -3 -610 -10 -610 -7 0 -10 210 -10 610 0 400 3 610
10 610 7 0 10 -210 10 -610z m650 0 l0 -610 -300 0 -300 0 0 610 0 610 300 0
300 0 0 -610z m850 0 l0 -610 -400 0 -400 0 0 610 0 610 400 0 400 0 0 -610z
m-1500 -965 l0 -305 -322 0 -323 0 305 305 c168 168 313 305 322 305 17 0 18
-21 18 -305z m630 302 c0 -1 -130 -133 -290 -292 l-290 -290 0 293 0 292 290
0 c160 0 290 -1 290 -3z m870 -302 l0 -305 -707 0 -708 0 305 305 305 305 402
0 403 0 0 -305z m620 302 c0 -1 -128 -130 -285 -287 l-285 -285 0 288 0 287
285 0 c157 0 285 -1 285 -3z"/>
</g>
</svg>
