<?xml version="1.0" standalone="no"?>
<svg version="1.0" xmlns="http://www.w3.org/2000/svg"
  viewBox="0 0 200.000000 200.000000"
  fill="#35f210"
 preserveAspectRatio="xMidYMid meet">
<g transform="translate(0.000000,200.000000) scale(0.100000,-0.100000)"
 stroke="none">
<path d="M364 1986 c-6 -17 -299 -266 -313 -266 -5 0 -19 -15 -30 -34 -21 -33
-21 -40 -21 -860 l0 -826 808 0 807 0 193 193 192 192 0 808 0 807 -815 0
c-683 0 -816 -2 -821 -14z m1441 -84 c-6 -5 -64 -55 -130 -113 -66 -57 -130
-110 -143 -116 -16 -10 -140 -13 -522 -13 l-500 0 0 125 0 125 652 0 c359 0
648 -4 643 -8z m-1418 -239 c-3 -2 -55 -2 -116 -1 l-112 3 113 94 113 93 3
-92 c1 -51 1 -94 -1 -97z m1533 -473 c0 -571 -2 -650 -15 -650 -13 0 -15 65
-15 523 0 288 -3 526 -6 530 -4 3 -27 -9 -51 -28 -25 -19 -49 -32 -53 -30 -8
5 -27 -11 -97 -78 l-23 -22 0 -447 c0 -441 0 -448 -20 -448 -20 0 -20 7 -20
514 l0 514 148 135 c81 75 148 136 150 136 1 1 2 -291 2 -649z m-1530 65 l0
-285 -115 0 -116 0 1 -307 c0 -170 1 -326 0 -349 0 -22 -7 -49 -15 -60 -13
-17 -14 58 -15 634 l0 652 130 0 130 0 0 -285z m1100 -215 c0 -438 -2 -500
-15 -500 -13 0 -15 31 -15 215 l0 215 -185 0 -185 0 0 -215 0 -215 -25 0 -25
0 0 215 0 215 -210 0 -210 0 0 -215 0 -215 -25 0 -25 0 0 215 0 215 -30 0 -30
0 0 285 0 285 490 0 490 0 0 -500z m370 0 l0 -500 -85 0 -85 0 0 440 0 440 41
40 c23 22 44 38 48 36 4 -3 20 6 37 19 16 13 32 24 37 25 4 0 7 -225 7 -500z
m-1470 -343 l0 -243 -57 -48 c-32 -27 -68 -53 -80 -59 -13 -5 -25 -18 -28 -28
-3 -9 -12 -20 -20 -23 -13 -5 -15 39 -15 319 l0 325 100 0 100 0 0 -243z m150
43 c0 -171 -2 -200 -15 -200 -13 0 -15 29 -15 200 0 171 2 200 15 200 13 0 15
-29 15 -200z m470 0 l0 -200 -180 0 -180 0 0 200 0 200 180 0 180 0 0 -200z
m410 0 l0 -200 -150 0 -150 0 0 200 0 200 150 0 150 0 0 -200z m-880 -385 l0
-55 -72 0 -72 0 54 55 c30 30 62 55 72 55 15 0 18 -9 18 -55z m80 -20 l0 -75
210 0 210 0 0 75 c0 73 1 75 25 75 24 0 25 -2 25 -75 l0 -75 185 0 185 0 0 75
c0 60 3 75 15 75 13 0 15 -23 15 -145 l0 -145 -642 0 -643 1 77 74 78 75 105
0 105 0 0 70 c0 68 1 70 25 70 24 0 25 -2 25 -75z m390 15 l0 -60 -180 0 -180
0 0 60 0 60 180 0 180 0 0 -60z m410 0 l0 -60 -150 0 -150 0 0 60 0 60 150 0
150 0 0 -60z m240 10 c0 -35 4 -52 14 -56 9 -3 44 18 84 50 111 90 105 65 -13
-54 -60 -60 -113 -110 -117 -110 -5 0 -8 50 -8 110 0 103 1 110 20 110 17 0
20 -7 20 -50z m110 46 c0 -2 -18 -19 -40 -36 l-40 -32 0 36 c0 35 1 36 40 36
22 0 40 -2 40 -4z"/>
<path d="M742 1398 c-7 -7 -36 -24 -65 -39 l-52 -25 -3 -132 c-1 -80 2 -140 8
-152 10 -19 21 -20 163 -20 l153 0 47 48 48 48 -3 140 -3 139 -140 3 c-103 2
-144 -1 -153 -10z m203 -48 c-28 -12 -155 -12 -155 0 0 6 35 10 88 9 58 0 80
-3 67 -9z m45 -115 c0 -60 -3 -75 -15 -75 -12 0 -15 14 -15 68 0 38 3 72 7 75
17 18 23 1 23 -68z m-250 -28 l0 -83 -35 -17 -35 -17 0 100 0 100 35 0 35 0 0
-83z m72 71 c-20 -20 -14 -28 25 -28 l37 0 -27 -28 c-33 -35 -34 -42 -3 -42
38 0 58 27 54 72 -2 21 0 38 4 38 5 0 8 -29 8 -65 l0 -65 -60 0 -60 0 0 65 c0
55 3 65 17 65 13 0 14 -3 5 -12z m98 -183 c0 -12 -15 -15 -71 -15 -62 0 -70 2
-59 15 8 10 31 15 71 15 46 0 59 -3 59 -15z"/>
<path d="M1190 1370 c-8 -4 -32 -16 -52 -25 -21 -9 -38 -19 -38 -23 1 -14 75
-247 83 -259 5 -8 29 -13 56 -13 27 0 53 6 59 13 15 17 92 226 92 248 0 32
-72 69 -132 68 -29 0 -60 -4 -68 -9z m124 -49 c7 -10 -66 -21 -95 -14 -16 4
-17 8 -7 14 17 11 95 11 102 0z m-41 -64 c34 1 47 -2 44 -10 -2 -7 -15 -42
-28 -79 -20 -56 -28 -68 -46 -68 -19 0 -25 11 -43 68 -11 37 -23 75 -26 85 -5
15 -2 17 23 10 15 -4 50 -7 76 -6z"/>
</g>
</svg>
