<?xml version="1.0" encoding="iso-8859-1"?>
<svg version="1.1" xmlns="http://www.w3.org/2000/svg" x="0px" y="0px"
	 viewBox="0 0 442.123 442.123" style="enable-background:new 0 0 442.123 442.123;" xml:space="preserve">
<path d="M427.123,89.291H422.4V71.495c0-8.271-6.729-15-15-15H53.459c-7.771,0-15.401,5.89-17.369,13.407l-0.23,0.878H15
	c-8.271,0-15,6.729-15,15v51.799c0,8.087,6.437,14.682,14.454,14.972l-6.265,23.932c-1.06,4.047-0.32,8.112,2.028,11.154
	c2.348,3.042,6.094,4.786,10.276,4.786h36.257L1.286,364.325c-1.729,5.356-1.034,10.746,1.903,14.786
	c2.938,4.04,7.854,6.361,13.483,6.367l151.814,0.149h0.019c0.001,0,0.001,0,0.001,0c5.39,0,10.467-2.109,14.297-5.938
	c3.83-3.83,5.939-8.907,5.939-14.298v-35.536c0-11.166-9.085-20.251-20.251-20.251h-9.251c-2.267,0-4.04-0.722-4.994-2.031
	c-0.954-1.311-1.096-3.221-0.398-5.377l8.023-24.838h84.682c12.396,0,25.033-8.226,30.05-19.557l28.954-65.378H407.4
	c8.271,0,15-6.729,15-15v-24.845h4.723c8.271,0,15-6.729,15-15v-33.288C442.123,96.02,435.395,89.291,427.123,89.291z
	 M245.163,242.358h-38.729c11.266-5.842,18.503-15.51,18.503-26.66c0-9.208-4.935-17.406-12.996-23.274h55.336L245.163,242.358z
	 M283.11,120.935c0,5.5-4.5,10-10,10H116.802c-5.5,0-10-4.5-10-10v-30.44c0-5.5,4.5-10,10-10H273.11c5.5,0,10,4.5,10,10V120.935z"/>
</svg>
