<?xml version="1.0" standalone="no"?>
<svg version="1.0" xmlns="http://www.w3.org/2000/svg"
 viewBox="0 0 397.000000 372.000000"
 preserveAspectRatio="xMidYMid meet">
<g transform="translate(0.000000,372.000000) scale(0.100000,-0.100000)"
fill="#427621" stroke="none">
<path d="M1775 2234 c-16 -2 -100 -11 -185 -20 -292 -29 -378 -43 -575 -93
-85 -21 -327 -140 -404 -198 -180 -135 -363 -301 -398 -360 -19 -33 -31 -43
-50 -43 -107 0 -193 -207 -135 -322 11 -20 22 -68 26 -107 7 -82 20 -115 53
-136 14 -10 23 -25 23 -41 0 -33 21 -73 70 -128 39 -46 65 -111 55 -137 -12
-33 53 -101 144 -151 l32 -17 -49 -51 c-54 -56 -80 -116 -59 -137 9 -9 26 -8
76 3 81 19 90 15 85 -33 -8 -62 6 -71 60 -39 54 31 165 69 183 62 7 -3 13 -21
13 -40 0 -39 8 -66 21 -66 4 0 44 27 87 61 l79 60 54 -6 c84 -10 85 -11 55
-50 -33 -43 -56 -96 -56 -130 0 -27 20 -34 39 -12 12 16 112 42 132 35 9 -3
12 -21 10 -61 -2 -56 4 -68 26 -46 23 23 173 50 328 59 459 28 572 64 605 193
6 23 13 47 15 53 2 6 29 14 61 18 32 4 100 16 152 28 91 21 95 21 140 4 48
-19 106 -32 177 -42 86 -12 73 -38 -41 -89 -49 -21 -101 -48 -115 -58 -31 -22
-67 -94 -53 -106 5 -5 44 -4 86 1 101 13 112 9 104 -42 -3 -21 -2 -41 4 -45 5
-3 53 5 107 19 54 13 126 27 160 30 86 9 161 33 188 60 31 31 97 234 103 317
7 104 3 111 -87 158 -44 23 -83 45 -85 50 -3 5 18 24 47 44 73 49 169 142 212
207 64 95 86 168 88 295 1 60 -1 119 -4 130 -4 11 -12 40 -19 64 -21 78 -108
249 -147 289 -7 7 -13 17 -13 22 0 10 -94 110 -104 110 -4 0 -13 6 -20 13 -67
66 -190 148 -306 203 -136 65 -155 72 -305 124 -133 45 -169 53 -320 70 -186
20 -323 29 -370 24z m-838 -715 c34 -13 80 -55 99 -91 36 -69 1 -173 -70 -207
-61 -30 -224 -30 -271 -1 -33 20 -75 99 -75 137 2 60 63 117 159 150 73 25
116 28 158 12z m-733 -48 c38 -42 37 -74 -4 -159 -53 -108 -104 -146 -144
-106 -19 19 -22 118 -5 179 23 83 111 133 153 86z m862 -428 c13 -14 27 -36
29 -47 6 -24 -66 -198 -84 -204 -33 -11 -222 228 -200 255 11 13 53 18 162 21
62 2 70 0 93 -25z m179 -34 c28 -15 65 -41 83 -56 l34 -28 -24 -64 c-14 -36
-29 -66 -34 -68 -5 -1 -20 13 -34 33 -14 19 -55 74 -92 122 -37 48 -68 91 -68
95 0 16 85 -5 135 -34z m-467 1 c11 -18 10 -25 -6 -48 -20 -29 -40 -71 -67
-139 -10 -24 -23 -43 -30 -43 -12 0 -108 68 -113 81 -2 5 -17 24 -33 45 -16
20 -29 40 -29 45 0 5 19 13 43 19 23 6 78 22 122 35 99 29 98 29 113 5z m-312
-75 c4 -8 -6 -29 -22 -48 -16 -18 -40 -49 -54 -70 -14 -20 -30 -37 -37 -37
-20 0 -93 109 -93 140 0 6 28 10 68 11 37 1 78 5 92 9 37 12 40 11 46 -5z
m-252 -18 c15 -23 12 -97 -4 -97 -19 0 -66 101 -53 114 14 13 43 5 57 -17z
m694 -79 c86 -89 97 -105 94 -132 -2 -17 -5 -33 -8 -35 -3 -4 -221 17 -262 25
-20 4 -22 8 -16 47 10 61 69 197 86 197 5 0 53 -46 106 -102z m263 62 c78 -91
118 -161 122 -215 2 -15 -7 -21 -43 -28 -54 -10 -198 -3 -212 11 -12 12 12
111 42 177 11 25 25 56 30 70 13 34 22 32 61 -15z m-636 -61 c22 -22 61 -54
87 -70 45 -29 65 -54 50 -63 -16 -10 -292 7 -292 18 0 16 69 128 88 143 24 17
24 17 67 -28z m853 -85 c-4 -17 -17 -39 -28 -49 -19 -17 -20 -17 -31 7 -9 21
-6 35 22 94 l33 69 7 -45 c3 -25 2 -59 -3 -76z m-1113 58 c20 -14 65 -81 65
-96 0 -11 -9 -16 -30 -16 -33 0 -41 13 -54 83 -7 36 -1 44 19 29z m263 -546
c-7 -8 -15 -12 -17 -11 -5 6 10 25 20 25 5 0 4 -6 -3 -14z"/>
<path d="M765 1431 c-14 -21 -28 -53 -31 -72 -7 -47 17 -114 42 -114 17 0 19
7 16 65 -2 50 2 74 17 104 34 66 -2 81 -44 17z"/>
<path d="M97 1425 c-31 -31 -49 -190 -22 -190 6 0 13 30 17 67 3 37 13 81 21
98 17 33 7 48 -16 25z"/>
</g>
</svg>
